<svg width="700" height="484" viewBox="0 0 700 484" fill="none" xmlns="http://www.w3.org/2000/svg">
<path d="M307.877 242H682.276" stroke="black" stroke-width="35" stroke-linecap="round" stroke-linejoin="round"/>
<path d="M307.877 18.3066H682.276" stroke="black" stroke-width="35" stroke-linecap="round" stroke-linejoin="round"/>
<path d="M307.877 465.693H682.276" stroke="black" stroke-width="35" stroke-linecap="round" stroke-linejoin="round"/>
<path d="M235.474 35.8067C245.139 35.8067 252.974 27.9717 252.974 18.3067C252.974 8.6417 245.139 0.806641 235.474 0.806641C225.809 0.806641 217.974 8.6417 217.974 18.3067C217.974 27.9717 225.809 35.8067 235.474 35.8067Z" fill="black"/>
<path d="M235.474 259.5C245.139 259.5 252.974 251.665 252.974 242C252.974 232.335 245.139 224.5 235.474 224.5C225.809 224.5 217.974 232.335 217.974 242C217.974 251.665 225.809 259.5 235.474 259.5Z" fill="black"/>
<path d="M235.474 483.193C245.139 483.193 252.974 475.358 252.974 465.693C252.974 456.028 245.139 448.193 235.474 448.193C225.809 448.193 217.974 456.028 217.974 465.693C217.974 475.358 225.809 483.193 235.474 483.193Z" fill="black"/>
<path d="M17.7236 242H163.07" stroke="black" stroke-width="35" stroke-linecap="round" stroke-linejoin="round"/>
<path d="M17.7236 18.3066H163.07" stroke="black" stroke-width="35" stroke-linecap="round" stroke-linejoin="round"/>
<path d="M17.7236 465.693H163.07" stroke="black" stroke-width="35" stroke-linecap="round" stroke-linejoin="round"/>
</svg>
